<svg xmlns="http://www.w3.org/2000/svg" width="220" height="132" viewBox="0 0 220 132" fill="none">
  <defs>
    <linearGradient id="case" x1="0" y1="0" x2="1" y2="1"><stop stop-color="#4e6589"/><stop offset="1" stop-color="#1c2943"/></linearGradient>
    <linearGradient id="screen" x1="0" y1="0" x2="1" y2="1"><stop stop-color="#45dded"/><stop offset="1" stop-color="#5485f5"/></linearGradient>
  </defs>
  <rect x="12" y="28" width="67" height="82" rx="17" fill="url(#case)" stroke="#9db9df" stroke-opacity=".35"/>
  <rect x="25" y="42" width="41" height="33" rx="9" fill="url(#screen)" fill-opacity=".6"/>
  <path d="M38 51h16v5h-5v11h-6V56h-5z" fill="white"/>
  <path d="M26 89h39M26 97h26" stroke="#d2e2ff" stroke-width="3" stroke-linecap="round" opacity=".6"/>
  <rect x="141" y="28" width="67" height="82" rx="17" fill="url(#case)" stroke="#9db9df" stroke-opacity=".35"/>
  <rect x="154" y="42" width="41" height="33" rx="9" fill="url(#screen)"/>
  <path d="M167 51h16v5h-5v11h-6V56h-5z" fill="white"/>
  <path d="M155 89h39M155 97h26" stroke="#d2e2ff" stroke-width="3" stroke-linecap="round" opacity=".6"/>
  <path d="M93 66h34m-10-10 10 10-10 10" stroke="#73e5ef" stroke-width="5" stroke-linecap="round" stroke-linejoin="round"/>
</svg>
